<?xml version="1.0" encoding="UTF-8"?>
<svg id="Capa_1" data-name="Capa 1" xmlns="http://www.w3.org/2000/svg" xmlns:xlink="http://www.w3.org/1999/xlink" viewBox="0 0 1200 1200">
  <defs>
    <style>
      .cls-1 {
        fill: url(#Degradado_sin_nombre_36);
      }

      .cls-2 {
        fill: url(#Degradado_sin_nombre_36-2);
      }

      .cls-3 {
        fill: #fff;
      }
    </style>
    <linearGradient id="Degradado_sin_nombre_36" data-name="Degradado sin nombre 36" x1="298.3" y1="110.98" x2="1089.28" y2="827.92" gradientUnits="userSpaceOnUse">
      <stop offset="0" stop-color="#f4a733"/>
      <stop offset=".55" stop-color="#cd3e6a"/>
      <stop offset="1" stop-color="#f7aa2a"/>
    </linearGradient>
    <linearGradient id="Degradado_sin_nombre_36-2" data-name="Degradado sin nombre 36" x1="58.25" y1="375.83" x2="849.23" y2="1092.77" xlink:href="#Degradado_sin_nombre_36"/>
  </defs>
  <rect class="cls-3" width="1200" height="1200" rx="142.65" ry="142.65"/>
  <g>
    <path class="cls-1" d="M153.74,189.49c.68-.48,3.19-.16,4-.16,6.27,0,12.54,0,18.81,0,12.54,0,25.08,0,37.62-.01,12.54,0,25.08,0,37.62-.01,12.54,0,25.08,0,37.62-.01,12.54,0,25.08,0,37.62-.01,12.54,0,25.08,0,37.62-.01,12.54,0,25.08,0,37.62-.01,12.54,0,25.08,0,37.62-.01,12.54,0,25.08,0,37.62-.01,12.54,0,25.08,0,37.62-.01,12.54,0,25.08,0,37.62-.01,12.54,0,25.08,0,37.62-.01,12.54,0,25.08,0,37.62-.01,12.54,0,25.08,0,37.62-.01,12.54,0,25.08,0,37.62-.01,6.77,0,13.54,0,20.31,0,8.89,0,17.9,0,26.51,2.22,11.31,2.9,21.29,9.41,31.05,15.81,92.5,60.73,185.01,121.46,277.51,182.18,3.84,2.52,7.81,5.17,10.17,9.12,2.83,4.72,2.91,10.53,2.92,16.03.06,66.45.12,132.89.17,199.34,0,4.93-.02,9.99-1.85,14.56-4.28,10.65-17.47,15.4-28.82,13.7-11.35-1.7-21.29-8.3-30.8-14.73-102.78-69.48-205.57-138.96-308.35-208.44-9.55-6.45-19.3-13.01-30.37-16.21-9.39-2.72-19.3-2.9-29.08-3.06-162.99-2.68-325.98-5.36-488.98-8.05,0,0,0-34.31,0-37.43,0-12.54,0-25.08,0-37.62,0-12.54,0-25.08,0-37.62,0-12.54,0-25.08,0-37.62,0-12.54,0-25.08,0-37.62,0-3.13,0-6.27,0-9.4,0-.75,0-1.5,0-2.26,0-.62-.25-1.9,0-2.45.03-.06.08-.12.14-.16Z"/>
    <path class="cls-2" d="M394.6,817.99c6.03,2.81,13.2,2.92,19.98,2.92,217.18,0,434.36-.01,651.55-.02,0,67.36,0,134.72,0,202.08-304.59-.88-609.17-1.77-913.76-2.65.52,0,1.35-23.02,1.42-25.13.28-8.51.39-17.03.37-25.55-.04-17.12-.58-34.24-1.18-51.35-.6-17.09-1.27-34.18-1.56-51.29-.29-16.91-.23-33.84.66-50.74.88-16.66,2.56-33.29,5.5-49.72,2.94-16.4,7.15-32.58,12.94-48.21.71-1.91,1.31-3.98,2.3-5.76.64-1.17,1.65-2.02,2.41-3.11,1.96-2.83,3.2-6.38,4.7-9.47,3.08-6.33,6.23-12.64,9.48-18.89,6.53-12.58,13.45-24.96,21.07-36.92,7.48-11.75,15.64-23.09,24.77-33.62,8.86-10.22,18.65-19.68,29.51-27.75,10.81-8.03,22.66-14.64,35.31-19.3,1.74-.64,3.5-1.25,5.27-1.82,25.86-8.32,53.56-8.18,80.72-7.96,163.26,1.31,326.52,2.63,489.78,3.94,3.59,63.97-23.34,128.98-71.1,171.68-14.12,12.62-30.29,23.53-48.57,28.47-14.26,3.85-29.23,3.94-44,4.01-89.47.39-178.94.78-268.41,1.17-16.72.07-34.71.55-48.15,10.5-13.44,9.95-17.87,33.21-4.12,42.72,1,.69,2.04,1.28,3.12,1.78Z"/>
  </g>
</svg>