<?xml version="1.0" encoding="UTF-8"?>
<svg id="Capa_1" data-name="Capa 1" xmlns="http://www.w3.org/2000/svg" viewBox="0 0 1350 1080">
  <defs>
    <style>
      .cls-1 {
        fill: #fff;
      }

      .cls-2 {
        fill: #f97316;
      }
    </style>
  </defs>
  <rect class="cls-2" x="-132.33" y="-190.21" width="1602.38" height="1412.43"/>
  <g>
    <path class="cls-1" d="M303.21,521.07h27.46v52.7c-14.29,10.76-33.96,16.52-52.52,16.52-40.83,0-70.89-28.02-70.89-67.18s30.06-67.18,71.45-67.18c22.83,0,41.76,7.79,54.38,22.46l-19.3,17.82c-9.46-10.02-20.41-14.66-33.59-14.66-25.24,0-42.5,16.89-42.5,41.57s17.26,41.57,42.13,41.57c8.17,0,15.77-1.48,23.38-5.57v-38.04Z"/>
    <path class="cls-1" d="M349.05,538.14c0-30.06,23.2-51.41,54.93-51.41s54.75,21.34,54.75,51.41-23.01,51.41-54.75,51.41-54.93-21.34-54.93-51.41ZM429.4,538.14c0-17.26-10.95-27.65-25.42-27.65s-25.61,10.39-25.61,27.65,11.13,27.65,25.61,27.65,25.42-10.39,25.42-27.65Z"/>
    <path class="cls-1" d="M522.37,575.26l10.21-22.64c10.95,7.98,27.28,13.55,42.87,13.55,17.82,0,25.05-5.94,25.05-13.92,0-24.31-75.53-7.61-75.53-55.86,0-22.08,17.82-40.46,54.75-40.46,16.33,0,33.03,3.9,45.1,11.51l-9.28,22.83c-12.06-6.87-24.5-10.21-36-10.21-17.82,0-24.68,6.68-24.68,14.85,0,23.94,75.53,7.42,75.53,55.12,0,21.71-18,40.27-55.12,40.27-20.6,0-41.38-6.12-52.89-15.03Z"/>
    <path class="cls-1" d="M757.67,538.14c0,31.36-21.71,51.41-49.73,51.41-12.43,0-22.64-3.9-30.06-12.06v46.58h-28.95v-135.84h27.65v11.51c7.24-8.72,18-12.99,31.36-12.99,28.02,0,49.73,20.04,49.73,51.41ZM728.35,538.14c0-17.26-10.95-27.65-25.42-27.65s-25.42,10.39-25.42,27.65,10.95,27.65,25.42,27.65,25.42-10.39,25.42-27.65Z"/>
    <path class="cls-1" d="M769.54,538.14c0-30.06,23.2-51.41,54.93-51.41s54.75,21.34,54.75,51.41-23.01,51.41-54.75,51.41-54.93-21.34-54.93-51.41ZM849.9,538.14c0-17.26-10.95-27.65-25.42-27.65s-25.61,10.39-25.61,27.65,11.13,27.65,25.61,27.65,25.42-10.39,25.42-27.65Z"/>
    <path class="cls-1" d="M960.5,486.74v26.72c-2.41-.19-4.27-.37-6.5-.37-15.96,0-26.54,8.72-26.54,27.84v47.14h-28.95v-99.84h27.65v13.18c7.05-9.65,18.93-14.66,34.33-14.66Z"/>
    <path class="cls-1" d="M1045.67,583.24c-5.94,4.27-14.66,6.31-23.57,6.31-23.57,0-37.3-12.06-37.3-35.82v-41.01h-15.4v-22.27h15.4v-24.31h28.95v24.31h24.87v22.27h-24.87v40.64c0,8.54,4.64,13.18,12.43,13.18,4.27,0,8.54-1.3,11.69-3.71l7.79,20.41Z"/>
    <path class="cls-1" d="M1052.35,578.79l9.65-20.79c8.91,5.75,22.46,9.65,34.7,9.65,13.36,0,18.37-3.53,18.37-9.09,0-16.33-60.31.37-60.31-39.53,0-18.93,17.07-32.29,46.21-32.29,13.73,0,28.95,3.16,38.41,8.72l-9.65,20.6c-9.84-5.57-19.67-7.42-28.76-7.42-12.99,0-18.56,4.08-18.56,9.28,0,17.07,60.31.56,60.31,39.9,0,18.56-17.26,31.73-47.14,31.73-16.89,0-33.96-4.64-43.24-10.76Z"/>
  </g>
  <g>
    <path class="cls-1" d="M601.55,644.36v46.2c0,18.1-8.9,26.3-26.3,26.3-9.6,0-19-2.9-24.5-8.1l3.6-5.4c5,4.5,12.6,7.2,20.7,7.2,13.3,0,19.4-6.1,19.4-19.1v-6.7c-4.4,6.7-11.9,10.2-20.5,10.2-15,0-26.4-10.5-26.4-25.6s11.4-25.4,26.4-25.4c8.8,0,16.4,3.6,20.8,10.5v-10.1h6.8ZM594.65,669.36c0-11.4-8.4-19.2-20-19.2s-19.9,7.8-19.9,19.2,8.3,19.3,19.9,19.3,20-7.9,20-19.3Z"/>
    <path class="cls-1" d="M685.65,644.36l-26.3,58.9c-4.4,10.3-10,13.6-17.5,13.6-4.9,0-9.6-1.6-12.8-4.8l3.3-5.3c2.6,2.6,5.8,4,9.6,4,4.7,0,7.9-2.2,10.9-8.8l2.3-5.1-23.5-52.5h7.4l19.8,44.7,19.8-44.7h7Z"/>
    <path class="cls-1" d="M802.45,666.46v30.5h-7.1v-29.8c0-11.1-5.6-16.8-15.1-16.8-10.8,0-17.6,7-17.6,19v27.6h-7.1v-29.8c0-11.1-5.6-16.8-15.2-16.8-10.7,0-17.6,7-17.6,19v27.6h-7.1v-52.6h6.8v9.6c3.7-6.3,10.5-10,19.3-10s15.5,3.7,18.7,11.1c3.8-6.8,11.3-11.1,20.8-11.1,12.8,0,21.2,7.4,21.2,22.5Z"/>
  </g>
</svg>